# xmcd CD database file
#
# Track frame offsets:
#	150
#	9540
#	29931
#	65809
#	78206
#	112324
#	122894
#	133235
#	141393
#	157924
#	185860
#	202801
#	222799
#	254415
#	265828
#	269745
#
# Disc length: 3918 seconds
#
# Revision: 0
# Processed by: cddbd v1.5.1PL0 Copyright (c) Steve Scherf et al.
# Submitted via: CDex 1.50
#
DISCID=050f4c10
DTITLE=Colin Towns NDR Big Band - Frank Zappa´s Hot Licks (and Funny Smells)
DYEAR=2005
DGENRE=Jazz
TTITLE0=Introduction
TTITLE1=Peaches En Regalia
TTITLE2=Eat That Question
TTITLE3=Let´s Make The Water Turn Black
TTITLE4=Watermelon In Eastern Hay
TTITLE5=Brown Shoes Don´t Make It
TTITLE6=Willie The Pimp
TTITLE7=King Kong
TTITLE8=A Pound For A Brown
TTITLE9=Waka Jawaka
TTITLE10=Stevie´s Spanking
TTITLE11=Sinister Footwear - 2nd Movement
TTITLE12=Little Umbrellas - Big Swifty
TTITLE13=Black Napkins
TTITLE14=Be-Bop Tango
TTITLE15=G-Spot Tornado
EXTD=YEAR: 2005
EXTT0=
EXTT1=
EXTT2=
EXTT3=
EXTT4=
EXTT5=
EXTT6=
EXTT7=
EXTT8=
EXTT9=
EXTT10=
EXTT11=
EXTT12=
EXTT13=
EXTT14=
EXTT15=
PLAYORDER=
